<svg width="134" height="31" viewBox="0 0 134 31" fill="none" xmlns="http://www.w3.org/2000/svg">
<path d="M17.088 5.18131C18.6616 3.91113 20.6219 3.22102 21.9487 3.22102C23.6606 3.22102 24.6541 4.43618 24.7107 5.92645C26.616 4.04947 28.9913 3.22102 30.3998 3.22102C32.195 3.22102 33.1335 4.5195 33.1335 6.09308C33.1335 7.05986 32.7751 8.27502 32.1117 9.93192L26.3409 24.2356C25.7608 25.8375 25.7891 26.831 27.3894 27.6595L26.0359 31C21.7286 29.5647 21.0935 26.5543 22.2537 23.4339L27.031 11.5872C27.7211 9.93035 28.3012 8.52183 28.3012 7.94176C28.3012 7.55504 28.0528 7.30667 27.5828 7.30667C26.6993 7.30667 25.0707 8.24515 23.6622 9.81873L17.7247 24.6475H13.3341L18.5814 11.5857C19.2716 9.92878 19.8516 8.52026 19.8516 7.94019C19.8516 7.55347 19.6032 7.3051 19.1065 7.3051C18.2498 7.3051 16.7312 8.18856 15.3242 9.62538L9.30503 24.6475H4.91441L11.9287 7.19505C7.67643 8.60357 3.72754 9.45874 3.72754 11.779C3.72754 13.1042 4.96943 13.4359 5.66111 13.4359V17.0264C2.2923 17.0264 0.000313779 14.9278 0.0286099 11.9457C0.0286099 6.22984 7.23626 5.34637 13.6139 2.97107L17.0928 5.17974L17.088 5.18131Z" fill="black"/>
<path d="M49.8927 17.7181C47.739 21.4736 45.0603 24.649 41.6915 24.649C38.8195 24.649 38.4611 22.3571 38.4611 22.3571C38.4611 22.3571 36.5558 24.649 34.1255 24.649C32.0551 24.649 31.005 23.0204 31.005 21.0319C31.005 18.0765 33.352 9.60022 38.6261 9.60022C41.3048 9.60022 41.9116 11.8372 41.9116 11.8372L42.685 9.96021H47.0757L43.6518 18.4097C42.4099 21.5302 42.8784 21.9436 43.3751 21.9436C44.4803 21.9436 46.3572 20.0101 48.3458 16.6145C48.9259 16.6695 49.671 17.1946 49.8927 17.7196V17.7181ZM38.9578 19.1533L40.753 14.7344C40.753 14.7344 40.7247 13.1875 39.5112 13.1875C37.3292 13.1875 35.2856 18.3516 35.2856 20.1185C35.2856 20.8369 35.6173 21.1403 36.1691 21.1403C37.6876 21.1403 38.9578 19.1517 38.9578 19.1517V19.1533Z" fill="black"/>
<path d="M48.3458 16.613C48.9526 15.5362 49.7261 13.9626 50.5278 12.1957C50.031 11.6706 49.671 11.2022 49.671 10.5105C49.671 9.10196 51.1346 7.6117 52.2664 7.25171L54.0617 8.24522L53.1782 10.4539C54.31 11.4474 57.7071 12.9943 57.7071 15.0646C57.7071 15.3963 57.6238 15.8097 57.3754 16.4448L56.602 18.4051C55.3318 21.4972 55.9952 21.939 56.3804 21.939C57.1538 21.939 58.479 20.2271 60.6059 16.6099C61.186 16.6649 61.9311 17.1899 62.1528 17.715C60.0259 21.3872 57.8172 24.646 54.7801 24.646C52.6264 24.646 50.3344 23.0441 52.323 18.1567L53.2065 15.9198C53.4281 15.368 53.4549 15.0913 53.4549 14.953C53.4549 14.4012 52.8481 13.9044 52.1014 13.2693C51.3562 15.0096 50.6661 16.3615 49.8927 17.715C49.3126 17.66 48.5675 17.1349 48.3458 16.6099V16.613Z" fill="black"/>
<path d="M70.934 17.7181C68.8904 21.3085 66.0734 24.6491 62.5945 24.6491C59.8608 24.6491 58.1489 22.6055 60.1375 17.6631L63.2579 9.95865H60.9659L61.8777 7.74998H64.1414L65.4666 4.49121H69.8572L68.532 7.74998H70.7406L69.8289 9.95865H67.6469L64.2498 18.4082C62.9514 21.5553 63.5597 21.9421 64.1665 21.9421C65.52 21.9421 67.397 19.9818 69.3856 16.613C69.9657 16.668 70.7108 17.193 70.9324 17.7181H70.934Z" fill="black"/>
<path d="M79.2452 17.7181C77.1183 21.4453 74.3578 24.6491 71.1824 24.6491C68.6703 24.6491 66.9018 22.6605 68.9187 17.6631L72.0391 9.95868H76.4297L73.0326 18.4082C71.7625 21.5554 72.2592 21.9421 72.7292 21.9421C73.8344 21.9421 75.7396 20.0085 77.6999 16.613C78.28 16.668 79.0251 17.1931 79.2468 17.7181H79.2452ZM73.226 6.36821C73.226 5.01472 74.3028 3.96619 75.6563 3.96619C77.0098 3.96619 78.0866 5.01472 78.0866 6.36821C78.0866 7.72171 76.9548 8.79854 75.6563 8.79854C74.3578 8.79854 73.226 7.66669 73.226 6.36821Z" fill="black"/>
<path d="M95.3992 17.7181C93.1905 21.5569 90.5385 24.649 87.2247 24.649C84.3527 24.649 83.1658 22.4404 85.1261 17.553L85.5395 16.5312C86.0646 15.206 86.5063 14.1559 86.5063 13.7425C86.5063 13.3557 86.1746 13.1357 85.7612 13.1357C85.0978 13.1357 83.8276 13.7708 82.669 15.096L78.9418 24.2906H74.5512L80.3503 9.95864H84.7409L84.1609 11.4222C84.2992 11.2838 86.3428 9.60022 88.6898 9.60022C90.43 9.60022 91.3402 10.5387 91.3402 12.0022C91.3402 12.7474 91.0919 13.6874 90.5118 15.1227L89.1583 18.4082C87.8881 21.5836 88.4132 21.9421 88.8816 21.9421C89.9867 21.9421 91.892 20.0085 93.8523 16.6129C94.4324 16.668 95.1775 17.193 95.3992 17.7181Z" fill="black"/>
<path d="M110.696 17.7181C109.288 20.1751 107.328 22.0804 103.379 22.137C101.998 23.6288 100.175 24.6491 97.7179 24.6491C93.4373 24.6491 91.7804 21.4186 94.3208 15.1494C94.4308 14.8727 98.6281 4.49121 98.6281 4.49121H103.019L100.257 11.3122C100.257 11.3122 101.665 9.60024 103.874 9.60024C105.889 9.60024 107.104 10.9254 107.104 12.8307C107.104 14.0726 106.553 17.3046 104.867 20.1484C107.049 19.735 108.236 18.1881 109.148 16.6145C109.728 16.6696 110.473 17.1946 110.695 17.7196L110.696 17.7181ZM99.5681 21.0853C98.6296 20.5335 97.8562 19.7051 97.4145 18.6833C97.0278 20.0918 96.8627 21.7754 98.1596 21.7754C98.6564 21.7754 99.1264 21.5271 99.5681 21.0853ZM98.823 16.4196C98.823 17.7998 99.5681 18.9049 100.757 19.5668C101.862 17.7165 102.579 15.1761 102.579 14.431C102.579 13.8509 102.302 13.1891 101.337 13.1891C100.453 13.1891 98.823 14.2943 98.823 16.4196Z" fill="black"/>
<path d="M124.807 17.7181C122.928 21.0319 119.559 24.649 114.259 24.649C110.42 24.649 108.569 22.7721 108.569 19.7617C108.569 16.0895 111.358 9.60022 117.267 9.60022C120.388 9.60022 123.038 11.6438 121.271 15.6194C120.111 18.1331 117.902 19.7334 112.793 19.0716C112.793 19.0716 111.993 21.9436 115.499 21.9436C118.316 21.9436 121.298 20.0934 123.258 16.6145C123.838 16.6695 124.583 17.1946 124.805 17.7196L124.807 17.7181ZM113.54 16.6963C116.08 17.138 116.909 15.9779 117.461 14.6809C117.819 13.8525 117.986 13.1074 117.047 13.1074C115.004 13.1074 113.54 16.6978 113.54 16.6978V16.6963Z" fill="black"/>
<path d="M133.588 17.7181C131.544 21.3085 128.727 24.6491 125.248 24.6491C122.515 24.6491 120.803 22.6055 122.791 17.6631L125.912 9.95865H123.62L124.532 7.74998H126.795L128.121 4.49121H132.511L131.186 7.74998H133.395L132.483 9.95865H130.301L126.904 18.4082C125.605 21.5553 126.214 21.9421 126.82 21.9421C128.174 21.9421 130.051 19.9818 132.04 16.613C132.62 16.668 133.365 17.193 133.586 17.7181H133.588Z" fill="black"/>
<path d="M74.2509 3.70837C74.2509 3.70837 77.4861 2.52622 78.4545 5.56805L80.8377 3.57317L78.8035 3.03083L79.0094 0L76.2647 2.02317L74.1142 0.841025L74.2494 3.70837H74.2509Z" fill="black"/>
</svg>
